{
    "asset" : {
        "generator" : "Khronos glTF Blender I/O v1.3.48",
        "version" : "2.0"
    },
    "scene" : 0,
    "scenes" : [
        {
            "name" : "Scene",
            "nodes" : [
                0
            ]
        }
    ],
    "nodes" : [
        {
            "mesh" : 0,
            "name" : "Cylinder.001"
        }
    ],
    "meshes" : [
        {
            "name" : "Cylinder.002",
            "primitives" : [
                {
                    "attributes" : {
                        "POSITION" : 0,
                        "NORMAL" : 1,
                        "TEXCOORD_0" : 2
                    },
                    "indices" : 3
                }
            ]
        }
    ],
    "accessors" : [
        {
            "bufferView" : 0,
            "componentType" : 5126,
            "count" : 1488,
            "max" : [
                0.6050017476081848,
                3.9553616046905518,
                0.6050014495849609
            ],
            "min" : [
                -0.6050015091896057,
                -0.1343015432357788,
                -0.60500168800354
            ],
            "type" : "VEC3"
        },
        {
            "bufferView" : 1,
            "componentType" : 5126,
            "count" : 1488,
            "type" : "VEC3"
        },
        {
            "bufferView" : 2,
            "componentType" : 5126,
            "count" : 1488,
            "type" : "VEC2"
        },
        {
            "bufferView" : 3,
            "componentType" : 5123,
            "count" : 6714,
            "type" : "SCALAR"
        }
    ],
    "bufferViews" : [
        {
            "buffer" : 0,
            "byteLength" : 17856,
            "byteOffset" : 0
        },
        {
            "buffer" : 0,
            "byteLength" : 17856,
            "byteOffset" : 17856
        },
        {
            "buffer" : 0,
            "byteLength" : 11904,
            "byteOffset" : 35712
        },
        {
            "buffer" : 0,
            "byteLength" : 13428,
            "byteOffset" : 47616
        }
    ],
    "buffers" : [
        {
            "byteLength" : 61044,
            "uri" : "data:application/octet-stream;base64,"
        }
    ]
}
