{
    "asset" : {
        "generator" : "Khronos glTF Blender I/O v1.3.48",
        "version" : "2.0"
    },
    "scene" : 0,
    "scenes" : [
        {
            "name" : "Scene",
            "nodes" : [
                0,
                1,
                2,
                3
            ]
        }
    ],
    "nodes" : [
        {
            "mesh" : 0,
            "name" : "part"
        },
        {
            "mesh" : 1,
            "name" : "part1"
        },
        {
            "mesh" : 2,
            "name" : "part2"
        },
        {
            "mesh" : 3,
            "name" : "part3"
        }
    ],
    "materials" : [
        {
            "doubleSided" : true,
            "emissiveFactor" : [
                0,
                0,
                0
            ],
            "name" : "Material",
            "pbrMetallicRoughness" : {
                "baseColorFactor" : [
                    0.800000011920929,
                    0.800000011920929,
                    0.800000011920929,
                    1
                ],
                "metallicFactor" : 0,
                "roughnessFactor" : 0.4000000059604645
            }
        }
    ],
    "meshes" : [
        {
            "name" : "Cube",
            "primitives" : [
                {
                    "attributes" : {
                        "POSITION" : 0,
                        "NORMAL" : 1,
                        "TEXCOORD_0" : 2
                    },
                    "indices" : 3,
                    "material" : 0
                }
            ]
        },
        {
            "name" : "Cube.001",
            "primitives" : [
                {
                    "attributes" : {
                        "POSITION" : 4,
                        "NORMAL" : 5,
                        "TEXCOORD_0" : 6
                    },
                    "indices" : 7,
                    "material" : 0
                }
            ]
        },
        {
            "name" : "Cube.002",
            "primitives" : [
                {
                    "attributes" : {
                        "POSITION" : 8,
                        "NORMAL" : 9,
                        "TEXCOORD_0" : 10
                    },
                    "indices" : 11,
                    "material" : 0
                }
            ]
        },
        {
            "name" : "Cube.003",
            "primitives" : [
                {
                    "attributes" : {
                        "POSITION" : 12,
                        "NORMAL" : 13,
                        "TEXCOORD_0" : 14
                    },
                    "indices" : 15,
                    "material" : 0
                }
            ]
        }
    ],
    "accessors" : [
        {
            "bufferView" : 0,
            "componentType" : 5126,
            "count" : 194,
            "max" : [
                1,
                0.5853771567344666,
                0.257820725440979
            ],
            "min" : [
                -1,
                -1.004980444908142,
                -1
            ],
            "type" : "VEC3"
        },
        {
            "bufferView" : 1,
            "componentType" : 5126,
            "count" : 194,
            "type" : "VEC3"
        },
        {
            "bufferView" : 2,
            "componentType" : 5126,
            "count" : 194,
            "type" : "VEC2"
        },
        {
            "bufferView" : 3,
            "componentType" : 5123,
            "count" : 360,
            "type" : "SCALAR"
        },
        {
            "bufferView" : 4,
            "componentType" : 5126,
            "count" : 224,
            "max" : [
                1.0336804389953613,
                0.4457213878631592,
                1
            ],
            "min" : [
                -1.0935593843460083,
                -1.004980444908142,
                -0.4902589023113251
            ],
            "type" : "VEC3"
        },
        {
            "bufferView" : 5,
            "componentType" : 5126,
            "count" : 224,
            "type" : "VEC3"
        },
        {
            "bufferView" : 6,
            "componentType" : 5126,
            "count" : 224,
            "type" : "VEC2"
        },
        {
            "bufferView" : 7,
            "componentType" : 5123,
            "count" : 420,
            "type" : "SCALAR"
        },
        {
            "bufferView" : 8,
            "componentType" : 5126,
            "count" : 182,
            "max" : [
                1,
                1,
                0.3904826045036316
            ],
            "min" : [
                -1,
                -0.4249958097934723,
                -1
            ],
            "type" : "VEC3"
        },
        {
            "bufferView" : 9,
            "componentType" : 5126,
            "count" : 182,
            "type" : "VEC3"
        },
        {
            "bufferView" : 10,
            "componentType" : 5126,
            "count" : 182,
            "type" : "VEC2"
        },
        {
            "bufferView" : 11,
            "componentType" : 5123,
            "count" : 336,
            "type" : "SCALAR"
        },
        {
            "bufferView" : 12,
            "componentType" : 5126,
            "count" : 212,
            "max" : [
                1.0336804389953613,
                1,
                1
            ],
            "min" : [
                -1.0935593843460083,
                -0.4798581600189209,
                -0.4966895282268524
            ],
            "type" : "VEC3"
        },
        {
            "bufferView" : 13,
            "componentType" : 5126,
            "count" : 212,
            "type" : "VEC3"
        },
        {
            "bufferView" : 14,
            "componentType" : 5126,
            "count" : 212,
            "type" : "VEC2"
        },
        {
            "bufferView" : 15,
            "componentType" : 5123,
            "count" : 396,
            "type" : "SCALAR"
        }
    ],
    "bufferViews" : [
        {
            "buffer" : 0,
            "byteLength" : 2328,
            "byteOffset" : 0
        },
        {
            "buffer" : 0,
            "byteLength" : 2328,
            "byteOffset" : 2328
        },
        {
            "buffer" : 0,
            "byteLength" : 1552,
            "byteOffset" : 4656
        },
        {
            "buffer" : 0,
            "byteLength" : 720,
            "byteOffset" : 6208
        },
        {
            "buffer" : 0,
            "byteLength" : 2688,
            "byteOffset" : 6928
        },
        {
            "buffer" : 0,
            "byteLength" : 2688,
            "byteOffset" : 9616
        },
        {
            "buffer" : 0,
            "byteLength" : 1792,
            "byteOffset" : 12304
        },
        {
            "buffer" : 0,
            "byteLength" : 840,
            "byteOffset" : 14096
        },
        {
            "buffer" : 0,
            "byteLength" : 2184,
            "byteOffset" : 14936
        },
        {
            "buffer" : 0,
            "byteLength" : 2184,
            "byteOffset" : 17120
        },
        {
            "buffer" : 0,
            "byteLength" : 1456,
            "byteOffset" : 19304
        },
        {
            "buffer" : 0,
            "byteLength" : 672,
            "byteOffset" : 20760
        },
        {
            "buffer" : 0,
            "byteLength" : 2544,
            "byteOffset" : 21432
        },
        {
            "buffer" : 0,
            "byteLength" : 2544,
            "byteOffset" : 23976
        },
        {
            "buffer" : 0,
            "byteLength" : 1696,
            "byteOffset" : 26520
        },
        {
            "buffer" : 0,
            "byteLength" : 792,
            "byteOffset" : 28216
        }
    ],
    "buffers" : [
        {
            "byteLength" : 29008,
            "uri" : "data:application/octet-stream;base64,"
        }
    ]
}
