{
    "asset" : {
        "generator" : "Khronos glTF Blender I/O v1.3.48",
        "version" : "2.0"
    },
    "scene" : 0,
    "scenes" : [
        {
            "name" : "Scene",
            "nodes" : [
                0,
                1
            ]
        }
    ],
    "nodes" : [
        {
            "mesh" : 0,
            "name" : "Cylinder.002",
            "translation" : [
                -0.005304774269461632,
                2.250274419784546,
                0.00325073697604239
            ]
        },
        {
            "mesh" : 1,
            "name" : "Cylinder.003",
            "translation" : [
                0.0025561931543052197,
                0.7374074459075928,
                -0.0013804812915623188
            ]
        }
    ],
    "meshes" : [
        {
            "name" : "Cylinder.004",
            "primitives" : [
                {
                    "attributes" : {
                        "POSITION" : 0,
                        "NORMAL" : 1,
                        "TEXCOORD_0" : 2
                    },
                    "indices" : 3
                }
            ]
        },
        {
            "name" : "Cylinder.005",
            "primitives" : [
                {
                    "attributes" : {
                        "POSITION" : 4,
                        "NORMAL" : 5,
                        "TEXCOORD_0" : 6
                    },
                    "indices" : 7
                }
            ]
        }
    ],
    "accessors" : [
        {
            "bufferView" : 0,
            "componentType" : 5126,
            "count" : 1505,
            "max" : [
                0.6103063225746155,
                1.7050871849060059,
                0.6017507314682007
            ],
            "min" : [
                -0.5996967554092407,
                -0.7238266468048096,
                -0.6082524061203003
            ],
            "type" : "VEC3"
        },
        {
            "bufferView" : 1,
            "componentType" : 5126,
            "count" : 1505,
            "type" : "VEC3"
        },
        {
            "bufferView" : 2,
            "componentType" : 5126,
            "count" : 1505,
            "type" : "VEC2"
        },
        {
            "bufferView" : 3,
            "componentType" : 5123,
            "count" : 7482,
            "type" : "SCALAR"
        },
        {
            "bufferView" : 4,
            "componentType" : 5126,
            "count" : 1050,
            "max" : [
                0.6024455428123474,
                1.1003261804580688,
                0.6063819527626038
            ],
            "min" : [
                -0.6075576543807983,
                -0.8717089891433716,
                -0.6036211848258972
            ],
            "type" : "VEC3"
        },
        {
            "bufferView" : 5,
            "componentType" : 5126,
            "count" : 1050,
            "type" : "VEC3"
        },
        {
            "bufferView" : 6,
            "componentType" : 5126,
            "count" : 1050,
            "type" : "VEC2"
        },
        {
            "bufferView" : 7,
            "componentType" : 5123,
            "count" : 4596,
            "type" : "SCALAR"
        }
    ],
    "bufferViews" : [
        {
            "buffer" : 0,
            "byteLength" : 18060,
            "byteOffset" : 0
        },
        {
            "buffer" : 0,
            "byteLength" : 18060,
            "byteOffset" : 18060
        },
        {
            "buffer" : 0,
            "byteLength" : 12040,
            "byteOffset" : 36120
        },
        {
            "buffer" : 0,
            "byteLength" : 14964,
            "byteOffset" : 48160
        },
        {
            "buffer" : 0,
            "byteLength" : 12600,
            "byteOffset" : 63124
        },
        {
            "buffer" : 0,
            "byteLength" : 12600,
            "byteOffset" : 75724
        },
        {
            "buffer" : 0,
            "byteLength" : 8400,
            "byteOffset" : 88324
        },
        {
            "buffer" : 0,
            "byteLength" : 9192,
            "byteOffset" : 96724
        }
    ],
    "buffers" : [
        {
            "byteLength" : 105916,
            "uri" : "data:application/octet-stream;base64,"
        }
    ]
}
